<?xml version="1.0" encoding="UTF-8" standalone="no"?>
<!-- Created with Inkscape (http://www.inkscape.org/) -->

<svg
   xmlns:dc="http://purl.org/dc/elements/1.1/"
   xmlns:cc="http://creativecommons.org/ns#"
   xmlns:rdf="http://www.w3.org/1999/02/22-rdf-syntax-ns#"
   xmlns:svg="http://www.w3.org/2000/svg"
   xmlns="http://www.w3.org/2000/svg"
   xmlns:sodipodi="http://sodipodi.sourceforge.net/DTD/sodipodi-0.dtd"
   xmlns:inkscape="http://www.inkscape.org/namespaces/inkscape"
   width="64px"
   height="64px"
   id="svg2985"
   version="1.1"
   inkscape:version="0.48.2 r9819"
   sodipodi:docname="New document 2">
  <defs
     id="defs2987" />
  <sodipodi:namedview
     id="base"
     pagecolor="#ffffff"
     bordercolor="#666666"
     borderopacity="1.0"
     inkscape:pageopacity="0.0"
     inkscape:pageshadow="2"
     inkscape:zoom="5.5"
     inkscape:cx="32"
     inkscape:cy="32"
     inkscape:current-layer="layer1"
     showgrid="true"
     inkscape:document-units="px"
     inkscape:grid-bbox="true"
     inkscape:snap-grids="false"
     inkscape:window-width="1280"
     inkscape:window-height="738"
     inkscape:window-x="-8"
     inkscape:window-y="-8"
     inkscape:window-maximized="1">
    <inkscape:grid
       type="xygrid"
       id="grid2993"
       empspacing="4"
       visible="true"
       enabled="true"
       snapvisiblegridlinesonly="true"
       spacingx="4px"
       spacingy="4px" />
  </sodipodi:namedview>
  <metadata
     id="metadata2990">
    <rdf:RDF>
      <cc:Work
         rdf:about="">
        <dc:format>image/svg+xml</dc:format>
        <dc:type
           rdf:resource="http://purl.org/dc/dcmitype/StillImage" />
        <dc:title></dc:title>
      </cc:Work>
    </rdf:RDF>
  </metadata>
  <g
     id="layer1"
     inkscape:label="Layer 1"
     inkscape:groupmode="layer">
    <path
       sodipodi:type="arc"
       style="fill:#000000;fill-opacity:1;stroke:none"
       id="path3011"
       sodipodi:cx="32"
       sodipodi:cy="32"
       sodipodi:rx="32"
       sodipodi:ry="32"
       d="M 64,32 A 32,32 0 1 1 0,32 32,32 0 1 1 64,32 z" />
    <path
       style="fill:#ffffff;fill-opacity:1;stroke:none"
       d="M 32,64 C 24.225397,64 16.478548,58.355081 12,52 8.0836237,46.442643 5.3982529,38.281173 8,32 c 1.839713,-4.44146 6.502525,-8 12,-8 8,0 0,8 0,16 0,4.807402 1.934059,11.66655 10.545455,11.818182 7.027847,0.123748 6.159609,-7.255046 8.727273,-8.727273 3.12878,-1.793956 2.554134,-1.817978 10.190498,-3.63616 0,0 -7.367596,0.44746 -7.645044,-0.36384 C 41.107572,37.012976 38.141551,35.513655 36,36 32.914828,36.700641 34.363636,43.636364 30.363636,43.636364 26.363636,43.636364 31.999999,24 40,24 c 8,0 13.380214,2.643483 16,8 2.987015,6.107369 -0.08362,14.442643 -4,20 -4.478548,6.355081 -12.225397,12 -20,12 z"
       id="path3013"
       inkscape:connector-curvature="0"
       sodipodi:nodetypes="aaasssscsassaaa" />
  </g>
</svg>
