<?xml version="1.0" encoding="UTF-8" standalone="no"?>
<!-- Created with Inkscape (http://www.inkscape.org/) -->

<svg
   xmlns:dc="http://purl.org/dc/elements/1.1/"
   xmlns:cc="http://creativecommons.org/ns#"
   xmlns:rdf="http://www.w3.org/1999/02/22-rdf-syntax-ns#"
   xmlns:svg="http://www.w3.org/2000/svg"
   xmlns="http://www.w3.org/2000/svg"
   xmlns:sodipodi="http://sodipodi.sourceforge.net/DTD/sodipodi-0.dtd"
   xmlns:inkscape="http://www.inkscape.org/namespaces/inkscape"
   width="64px"
   height="64px"
   id="svg2985"
   version="1.1"
   inkscape:version="0.48.2 r9819"
   sodipodi:docname="logo.svg">
  <defs
     id="defs2987" />
  <sodipodi:namedview
     id="base"
     pagecolor="#ffffff"
     bordercolor="#666666"
     borderopacity="1.0"
     inkscape:pageopacity="0.0"
     inkscape:pageshadow="2"
     inkscape:zoom="7.7781746"
     inkscape:cx="28.427899"
     inkscape:cy="28.407253"
     inkscape:current-layer="layer1"
     showgrid="true"
     inkscape:document-units="px"
     inkscape:grid-bbox="true"
     inkscape:snap-grids="false"
     inkscape:window-width="1280"
     inkscape:window-height="738"
     inkscape:window-x="-8"
     inkscape:window-y="-8"
     inkscape:window-maximized="1">
    <inkscape:grid
       type="xygrid"
       id="grid2993"
       empspacing="4"
       visible="true"
       enabled="true"
       snapvisiblegridlinesonly="true"
       spacingx="4px"
       spacingy="4px" />
  </sodipodi:namedview>
  <metadata
     id="metadata2990">
    <rdf:RDF>
      <cc:Work
         rdf:about="">
        <dc:format>image/svg+xml</dc:format>
        <dc:type
           rdf:resource="http://purl.org/dc/dcmitype/StillImage" />
        <dc:title></dc:title>
      </cc:Work>
    </rdf:RDF>
  </metadata>
  <g
     id="layer1"
     inkscape:label="Layer 1"
     inkscape:groupmode="layer">
    <path
       sodipodi:type="arc"
       style="fill:#000000;fill-opacity:1;stroke:none"
       id="path3011"
       sodipodi:cx="32"
       sodipodi:cy="32"
       sodipodi:rx="32"
       sodipodi:ry="32"
       d="M 64,32 A 32,32 0 1 1 0,32 32,32 0 1 1 64,32 z" />
    <path
       style="fill:#ffffff;fill-opacity:1;stroke:none"
       d="M 32,64 C 24.225397,64 16.478548,58.355081 12,52 8.0836237,46.442643 5.3982529,38.281173 8,32 c 1.839713,-4.44146 6.502525,-8 12,-8 8,0 2.272727,8 2.272727,16 0,4.807402 1.752241,8.848368 7.000001,9.272727 7.006067,0.566545 7.487518,-5.28423 9.5,-7.454545 0.946962,-1.021229 3.804134,-0.977069 12.667771,0.182021 0,0 -2.806109,-1.222896 -5.049566,-1.660016 -2.053141,-0.400039 -3.440172,-0.793414 -3.800024,-1.090187 -1.694241,-1.397254 -1.621793,-4.07745 -4.954545,-4.022727 -4.214407,0.0692 -3.272728,8.409091 -7.272728,8.409091 C 26.363636,43.636364 31.999999,24 40,24 c 8,0 13.380214,2.643483 16,8 2.987015,6.107369 -0.08362,14.442643 -4,20 -4.478548,6.355081 -12.225397,12 -20,12 z"
       id="path3013"
       inkscape:connector-curvature="0"
       sodipodi:nodetypes="aaasssscsssssaaa" />
  </g>
</svg>
